# MagicaVoxel @ Ephtracy

# group
o 

# material
mtllib cimen.mtl
usemtl palette

# normals
vn -1 0 0
vn 1 0 0
vn 0 0 1
vn 0 0 -1
vn 0 -1 0
vn 0 1 0

# texcoords
vt 0.798828 0.5
vt 0.806641 0.5
vt 0.908203 0.5
vt 0.916016 0.5
vt 0.923828 0.5

# verts
v -2 0 2
v -2 0 -2
v -2 1 2
v -2 1 -2
v -2 1.7 2
v -2 1.7 -2
v -2 2.3 2
v -2 2.3 -2
v -2 3 2
v -2 3 -2
v -2 4 2
v -2 4 -2
v 2 0 2
v 2 0 -2
v 2 1 2
v 2 1 -2
v 2 1.7 2
v 2 1.7 -2
v 2 2.3 2
v 2 2.3 -2
v 2 3 2
v 2 3 -2
v 2 4 2
v 2 4 -2
v -2 0 2
v -2 1 2
v -2 1.7 2
v -2 2.3 2
v -2 3 2
v -2 4 2
v 2 0 2
v 2 1 2
v 2 1.7 2
v 2 2.3 2
v 2 3 2
v 2 4 2
v -2 0 -2
v -2 1 -2
v -2 1.7 -2
v -2 2.3 -2
v -2 3 -2
v -2 4 -2
v 2 0 -2
v 2 1 -2
v 2 1.7 -2
v 2 2.3 -2
v 2 3 -2
v 2 4 -2
v -2 0 2
v 2 0 2
v -2 0 -2
v 2 0 -2
v -2 4 2
v 2 4 2
v -2 4 -2
v 2 4 -2

# faces
f 3/2/1 2/2/1 1/2/1
f 4/2/1 2/2/1 3/2/1
f 5/1/1 4/1/1 3/1/1
f 6/1/1 4/1/1 5/1/1
f 7/4/1 6/4/1 5/4/1
f 8/4/1 6/4/1 7/4/1
f 9/5/1 8/5/1 7/5/1
f 10/5/1 8/5/1 9/5/1
f 11/3/1 10/3/1 9/3/1
f 12/3/1 10/3/1 11/3/1
f 13/2/2 14/2/2 15/2/2
f 15/2/2 14/2/2 16/2/2
f 15/1/2 16/1/2 17/1/2
f 17/1/2 16/1/2 18/1/2
f 17/4/2 18/4/2 19/4/2
f 19/4/2 18/4/2 20/4/2
f 19/5/2 20/5/2 21/5/2
f 21/5/2 20/5/2 22/5/2
f 21/3/2 22/3/2 23/3/2
f 23/3/2 22/3/2 24/3/2
f 31/2/3 26/2/3 25/2/3
f 32/1/3 27/1/3 26/1/3
f 32/2/3 26/2/3 31/2/3
f 33/4/3 28/4/3 27/4/3
f 33/1/3 27/1/3 32/1/3
f 34/5/3 29/5/3 28/5/3
f 34/4/3 28/4/3 33/4/3
f 35/3/3 30/3/3 29/3/3
f 35/5/3 29/5/3 34/5/3
f 36/3/3 30/3/3 35/3/3
f 37/2/4 38/2/4 43/2/4
f 38/1/4 39/1/4 44/1/4
f 43/2/4 38/2/4 44/2/4
f 39/4/4 40/4/4 45/4/4
f 44/1/4 39/1/4 45/1/4
f 40/5/4 41/5/4 46/5/4
f 45/4/4 40/4/4 46/4/4
f 41/3/4 42/3/4 47/3/4
f 46/5/4 41/5/4 47/5/4
f 47/3/4 42/3/4 48/3/4
f 51/2/5 50/2/5 49/2/5
f 52/2/5 50/2/5 51/2/5
f 53/3/6 54/3/6 55/3/6
f 55/3/6 54/3/6 56/3/6
